<svg xmlns="http://www.w3.org/2000/svg" viewBox="0 0 500 646.41"><defs><radialGradient id="a" cx="-54.22" cy="719.3" r="1" fx="-54.22" fy="719.3" gradientTransform="matrix(102.28 0 0 -102.28 5889.74 74035.43)" gradientUnits="userSpaceOnUse"><stop offset="0" stop-color="#fcd605"/><stop offset=".48" stop-color="#fcd605"/><stop offset=".99" stop-color="#df2c2f"/><stop offset="1" stop-color="#df2c2f"/></radialGradient></defs><path fill="#fff" d="M0 79.26v402.86s128.72 129.8 251.11 164.29C373.71 610.73 500 482.12 500 482.12V81.63C377.85-26.81 134.76-26.81 0 79.26"/><path fill="#212f5c" d="M43.75 115.07h407.66l2 340.61S299 590.84 251.01 590.24c-43.84 0-207.06-134.36-207.06-134.36l-.2-340.82z"/><path fill="#df2c2f" d="M47.88 112.77s-4.42 90.08-3.62 96.53c93.7-78.03 277.11-105.38 411.43-2.41 0 0 2.41-83.66 0-93.32-134.32-94.1-320.93-61.12-407.81-.8m155.24 145.48l10.86-7.78 42.43 7.78 7.44 5.88-9.25 8.42h-32.83l-2.48 11.6 34.12 4.52-9.97 8.94h-27.01l4.8 18.01-10.57 9.19h-21.68l14.15-66.57zm63.35 0l9.05-7.78 12.56 7.78-8.54 59.39-6.39 7.19h-23.22l16.54-66.57zm47.69 26.97h9.07c.98 0 2.95-.31 5.88-.9a7.6 7.6 0 0 0 3.95-2.08 7.55 7.55 0 0 0 2.17-3.86c.45-2.15.09-3.8-1.1-4.94-1.18-1.14-3.73-1.72-7.64-1.72h-9.45l-2.88 13.5zm-30.08 39.6l14.15-66.57 7.84-8.58 28.07 8.58c6.66 0 11.64.54 14.93 1.63a12.15 12.15 0 0 1 7.22 6.06c1.52 2.97 1.85 6.55.94 10.79-.78 3.69-11.95 4.04-14.15 6.71-2.23 2.68 4.71 7.69 1.45 9.36a32.02 32.02 0 0 1-8.13 2.64c2.41.81 4.09 1.63 5.09 2.44.69.56 1.59 1.72 2.72 3.51s1.83 3.17 2.14 4.13l14.03 11.71-7.67 7.58h-24.36l-7.19-20.34c-.9-2.62-1.85-4.34-2.81-5.12a7.9 7.9 0 0 0-4.96-1.56h-1.9l1.85 19.44-6.05 7.22-23.2.36z"/><path fill="#df2c2f" d="M372.12 255.7l9.18-5.63 48.58 8.18 4.91 5.48-8.62 8.72h-36.13l-2.79 10.59 38.68 5.23-8.69 8.33H383.7l-3.42 13.14 41.23 7.08-7.98 8h-58.81l17.39-69.13zm-221.68-40.62l10.06-4.42 12.45 9.65c-2.79 5.3-11.26 14.55-15.02 18.12a38.86 38.86 0 0 1-12.45 8.04c-4.58 1.81-9.97 2.72-16.24 2.72-7.58 0-13.47-1.09-17.63-3.29-4.18-2.21-7.22-6.08-9.12-11.64-1.88-5.56-1.59-12.67.89-21.32 3.31-11.55 8.92-20.44 16.85-26.63 7.91-6.21 17.5-9.3 28.72-9.3 8.8 0 15.19 1.77 19.2 5.32 1.95 1.74 14.19 3.37 15.66 5.81 1.21 2.01-9.14 10.57-9.14 10.57l-20.27 4.24c-.05-2.12-.31-3.67-.76-4.65a8.03 8.03 0 0 0-3.33-3.82 10.46 10.46 0 0 0-5.47-1.34c-4.89 0-9.19 1.97-12.91 5.9-2.82 2.91-5.1 7.51-6.9 13.76-2.23 7.73-2.57 13.05-1.05 15.91 1.52 2.88 4.42 4.31 8.65 4.31s5.38-1.92 8.14-4.24 7.42-9.27 9.65-13.68m62.43 6.3l-.51-25.11-14.82 25.11h15.33zm-2.26 15.08l-15.91.33-2.82 4.42-8.85 6.84h-24.53l45.85-72.4 11.66-6.44 20.53 2.03 5.23 61.52-2.43 14.9-28.54-.42-.18-10.77z"/><path fill="#df2c2f" d="M255 177.27l12.47-7.64-3.15 61.14 38.14 8.04-9.45 9.16h-55.19l17.18-70.7z"/><path fill="url(#a)" d="M330.52 435.99l-45.07-54.35 32.51 62.7-63.3-31.33 55.17 44.07-70.54-2.9 68.33 17.81-65.63 26.06 69.67-11.51-49.34 50.52 58.95-38.88-24.54 66.21 38.05-59.48 5.32 54.26 6.86-66.97 22.66 46.9-5.7-39.1 37.58 17.85-27.01-28.62 44.72 6.17-39.48-20.31 69.63-11.84-70.55-3.24 58.79-39.11-65.76 25.76 37.77-59.68-49.59 50.26 10.24-69.87-24.85 66.1-19.06-67.98 4.16 70.48z"/><path fill="#fff" d="M160.13 209.76l17.27 5.72c-2.79 5.3-6.06 9.74-9.81 13.29s-7.91 6.24-12.47 8.05-9.97 2.72-16.22 2.72c-7.58 0-13.47-1.1-17.65-3.31-4.16-2.21-7.2-6.08-9.1-11.64s-1.59-12.65.89-21.32c3.31-11.55 8.92-20.42 16.83-26.63 7.93-6.21 17.5-9.3 28.74-9.3 8.78 0 15.19 1.77 19.2 5.34 4 3.55 6.17 9.01 6.5 16.38l-20.27 4.24c-.05-2.14-.29-3.69-.74-4.67a8.34 8.34 0 0 0-3.33-3.82 10.46 10.46 0 0 0-5.47-1.32c-4.89 0-9.19 1.95-12.92 5.88-2.81 2.93-5.1 7.51-6.9 13.76-2.21 7.75-2.57 13.05-1.03 15.91 1.52 2.88 4.4 4.31 8.65 4.31s7.57-1.16 10.34-3.48c2.79-2.32 5.27-5.68 7.49-10.1m62.38 1.98l-.51-25.11-14.82 25.11h15.33zm.14 15.08h-24.49l-6.68 11.51h-22.03l46.15-69.79h23.57l6.23 69.79h-22.55l-.2-11.51zm44.83-58.29h21.56l-15.06 52.58h33.63l-4.94 17.2h-55.19l20-69.78zm-53.9 81.27h53.29l-3.04 14.3h-31.6l-2.48 11.6h26.99l-2.84 13.47h-27.01l-5.77 27.2h-21.68l14.15-66.57zm61.74 0h21.61l-16.54 66.57h-21.61l16.54-66.57zm46.08 26.96h9.07c.98 0 2.95-.31 5.88-.9a7.6 7.6 0 0 0 3.95-2.08 7.62 7.62 0 0 0 2.17-3.86c.45-2.15.09-3.8-1.1-4.94-1.18-1.16-3.73-1.72-7.66-1.72h-9.43l-2.88 13.5zm-30.1 39.6l14.17-66.57h35.91c6.66 0 11.64.54 14.93 1.63a12.15 12.15 0 0 1 7.22 6.06c1.52 2.95 1.85 6.55.94 10.79a21.91 21.91 0 0 1-4.51 9.56 25.82 25.82 0 0 1-8.2 6.52 32.02 32.02 0 0 1-8.13 2.64c2.41.81 4.09 1.63 5.09 2.44.69.56 1.59 1.72 2.72 3.51s1.83 3.17 2.14 4.13l6.35 19.29h-24.38l-7.19-20.34c-.89-2.62-1.83-4.34-2.79-5.14a8.01 8.01 0 0 0-4.96-1.54h-1.9l-5.74 27.02h-21.68zm89.67-66.56h57.76L435.04 264h-36.15l-2.79 10.61h33.54l-3.55 13.56h-33.54l-3.42 13.14h37.2l-3.95 15.08h-58.81l17.39-66.57z"/><path fill="none" stroke="#fac517" stroke-miterlimit="72.4" stroke-width="17.88" d="M455.5 209.29c-116.02-93.31-294.59-93.31-413.44 0"/><path fill="none" d="M231.68 75.49c-.81.04-1.29.13-1.54.2.07 4.31.16 8.62.24 12.91.25.05.72.02 1.05 0 3.26-.11 5.63-2.28 5.57-7.17-.04-4.2-2.26-6.12-5.32-5.94zm-22.72 6.16l-1.07-4.14h-.05c-.24 1.32-.45 3.15-.69 4.4l-.65 3.95 3.48-.43-1.01-3.76zm-5.36 30.63c-.04-.87-.54-1.79-1.48-1.66h-.02c-.9.13-1.36 1.1-1.32 1.99.04.9.43 1.7 1.36 2.62 1.07-1.16 1.5-1.95 1.47-2.95zm-3.33 7.91a3.6 3.6 0 0 0-.94 2.55c.07 1.57 1.16 2.79 2.93 2.55h.02a3.38 3.38 0 0 0 1.97-.98c-1.25-1.12-2.59-2.64-3.98-4.13zm89.13-9.75a6.8 6.8 0 0 0-1.52-.04c-.05 1.85-.13 3.67-.18 5.52.29.05.62.13 1.14.18 1.99.22 3.26-.78 3.33-2.64.05-1.59-.85-2.81-2.77-3.02zm-5.09-29.61c-.24-1.25-.54-3.04-.78-4.36h-.05c-.33 1.25-.67 3.02-.98 4.22-.31 1.27-.62 2.52-.9 3.76 1.16.11 2.32.24 3.47.34-.25-1.32-.49-2.64-.76-3.96zm22.15 31.84a7.23 7.23 0 0 0-1.7-.14l-.25 5.12 1.3.2c1.88.31 3.02-.6 3.11-2.19.09-1.65-.78-2.7-2.46-2.99zM266.72 81c1.99.11 3.26-.98 3.29-2.84.02-1.59-.92-2.75-2.84-2.84a6.8 6.8 0 0 0-1.52.05l-.07 5.52c.29.04.62.09 1.14.11zm-15.6 27.21c-.96 0-1.47.05-1.72.13v5.14h1.32c1.9 0 3-1.09 3-2.68s-.92-2.55-2.61-2.59zm-161.15 10.7l-1.45-3.66c-.02 0-.04 0-.05.02-.07 1.38-.07 3.24-.14 4.56-.05 1.36-.11 2.73-.18 4.09l3.19-1.68-1.36-3.33zM301.2 83.87c1.9.27 3.04-.63 3.11-2.23.07-1.63-.8-2.68-2.48-2.97a9.07 9.07 0 0 0-1.7-.13c-.09 1.7-.16 3.42-.24 5.12.43.05.87.13 1.3.2zm-200.8 57.94c-.89.42-1.36.71-1.57.89l.69 4.98 1.21-.58c1.77-.83 2.64-2.37 2.44-3.93-.22-1.59-1.21-2.06-2.77-1.36zm61.69-50.19c1.86-.49 2.84-1.85 2.72-3.44-.11-1.61-1.1-2.28-2.75-1.88-.92.25-1.41.45-1.67.58l.42 5.09c.43-.11.85-.24 1.29-.34zm.08 27.85c-.92.24-1.41.43-1.67.56.14 1.7.29 3.38.42 5.09l1.29-.34c1.86-.47 2.86-1.83 2.73-3.42-.13-1.61-1.1-2.28-2.77-1.88zm-78.96 31.16c-2.21 1.19-3.2 4.51-2.59 8.33.62 3.89 2.37 5.52 4.58 4.34 2.19-1.19 3.1-4.51 2.53-8.25-.54-3.58-2.3-5.61-4.53-4.42zm60.68-58.83c-2.33.76-3.55 3.86-3.17 7.77.4 3.98 2.12 5.94 4.45 5.18 2.32-.74 3.44-3.86 3.1-7.69-.34-3.67-2.01-6.03-4.38-5.25zm270.02 56.68c-2.23-1.16-4.02.67-4.58 4.53-.58 3.91.47 7.04 2.68 8.2 2.21 1.16 3.91-.78 4.49-4.51.54-3.6-.36-7.04-2.59-8.22zm-2.44-19.87c2.19 1.19 3.87-.72 4.45-4.45.56-3.58-.34-7.04-2.57-8.24-2.21-1.18-4 .63-4.56 4.47-.58 3.91.47 7.04 2.68 8.22zm-86.3-12.29c-2.39-.51-4.07 1.79-4.33 5.76-.25 4.02 1.1 6.82 3.48 7.33 2.39.52 3.96-1.86 4.24-5.72.27-3.71-.98-6.84-3.38-7.37z"/><path fill="#fff" d="M77.59 140a16.4 16.4 0 0 0 4.07-3.31l-1.32-4.02c-.63.74-1.83 1.74-2.91 2.37-3.08 1.83-5.27.62-5.9-3.17-.71-4.22 1.21-7.47 3.84-9.01a7.59 7.59 0 0 1 3.26-1.1l.2-4.87c-.78-.05-2.46.4-4.42 1.56-5.09 3-8.78 9.47-7.51 16.74.96 5.47 4.47 8.53 10.7 4.81zm10.57-11.61c1.47-.78 2.95-1.58 4.42-2.34l1.79 4.27c1.65-.85 3.31-1.7 4.96-2.52-2.68-6.14-5.41-12.23-8.16-18.3a364.06 364.06 0 0 0-6.17 3.28c-.62 7.86-1.19 15.71-1.74 23.55 1.56-.87 3.11-1.74 4.69-2.59l.22-5.36zm.16-8.56c.07-1.32.07-3.19.14-4.56.02-.02.04-.02.05-.02l1.45 3.66 1.36 3.33-3.19 1.68c.07-1.36.13-2.73.18-4.09zm24.52 1.63l-.6-4.72c-2.24 1-4.49 2.01-6.72 3.06l-2.19-16.29c-1.57.74-3.15 1.5-4.72 2.26l2.91 20.96c3.75-1.83 7.51-3.58 11.31-5.27zm7.01-3.02l-2.55-21.12c-1.61.67-3.2 1.36-4.8 2.05l2.64 21.09c1.56-.67 3.13-1.36 4.71-2.01zm7.98-3.2l-.9-8.05c2.08-.81 4.18-1.61 6.3-2.37-.16-1.54-.34-3.06-.49-4.6-2.12.78-4.24 1.56-6.33 2.37l-.43-3.93c2.24-.87 4.49-1.7 6.73-2.53l-.49-4.63a342.73 342.73 0 0 0-11.62 4.47l2.5 21.14c1.57-.63 3.15-1.27 4.74-1.86zm15.72-28c-5.63 1.83-8.6 8.04-7.95 14.19.63 5.9 4.2 9.74 9.76 7.91 5.56-1.79 8.67-7.17 8.07-14.05-.51-5.7-3.96-9.95-9.88-8.05zm1.63 17.5c-2.33.76-4.05-1.2-4.45-5.18-.38-3.91.83-7 3.17-7.76 2.37-.78 4.04 1.57 4.38 5.25.34 3.84-.78 6.95-3.1 7.69zm9.98-20.4zm6.63 19.75l-.65-8.04.8-.22c1.52-.4 2.24-.04 2.93 2.41.76 2.5 1.34 4.04 1.67 4.62 1.67-.43 3.35-.85 5.01-1.25-.42-.74-1.23-3.71-1.97-5.77-.6-1.74-1.36-2.95-2.62-3.24-.02-.04-.02-.07-.02-.13a7 7 0 0 0 2.81-5.97c-.16-2.1-.92-3.46-2.19-4.22-1.5-.87-3.58-.8-6.43-.04a35.44 35.44 0 0 0-5.95 2.1c.6 7.02 1.19 14.06 1.81 21.08l4.81-1.34zm.27-17.79c1.65-.4 2.64.27 2.75 1.88.13 1.59-.85 2.95-2.72 3.44-.43.11-.85.24-1.29.34l-.42-5.09c.25-.13.74-.33 1.67-.58zm21.65-9.12l.29 5.07c.2 3.22.49 6.21.94 8.98l-.09.04a56.94 56.94 0 0 0-3.38-6.95c-1.12-2.01-2.24-4-3.38-5.99-1.97.43-3.95.87-5.92 1.32.51 7.15 1 14.32 1.5 21.47 1.5-.34 2.99-.69 4.49-1.01-.11-1.76-.24-3.53-.34-5.29a255.7 255.7 0 0 0-.8-9.59c.04 0 .05-.02.07-.02a77.3 77.3 0 0 0 3.66 7.11l3.57 6.52c1.72-.34 3.46-.69 5.19-1l-1.19-21.52c-1.54.27-3.06.56-4.6.87zm13.17-2.32c-1.68.27-3.38.54-5.07.83l1.12 21.54c1.65-.29 3.31-.56 4.98-.81l-1.03-21.56zm7.64-1.12c-1.56 7.44-3.06 14.9-4.52 22.35 1.72-.25 3.44-.51 5.14-.74.29-1.7.58-3.42.85-5.12 1.61-.22 3.22-.42 4.83-.6l1.36 4.85c1.79-.2 3.6-.38 5.39-.56-2.06-7.02-4.16-14.03-6.3-21.01-2.26.27-4.51.54-6.75.83zm1.97 12.11l.65-3.95c.24-1.25.45-3.08.69-4.4h.05l1.07 4.14 1.01 3.76-3.48.43zm32.39-12.97c-1.92-1.41-4.22-1.99-7.86-1.79-2.26.13-4.43.44-6.06.83.14 7.08.31 14.14.47 21.19.98.13 2.59.22 5 .05 3.66-.2 6.7-1.16 8.72-3.1 1.83-1.68 3.26-4.58 3.24-8.98-.04-3.96-1.41-6.64-3.51-8.22zm-7.46 15.71c-.33.02-.8.05-1.05 0l-.24-12.91c.25-.07.72-.16 1.54-.2 3.06-.18 5.29 1.74 5.32 5.94.05 4.89-2.32 7.06-5.57 7.17zm26.26 3.82l.02-4.74a380.1 380.1 0 0 0-7.55-.09v-3.96c2.26 0 4.51 0 6.77.05l.02-4.69c-2.26-.04-4.52-.07-6.79-.05v-3.51c2.41 0 4.83.04 7.24.07l.04-4.72c-4.14-.07-8.27-.09-12.4-.02.04 7.2.07 14.43.09 21.63 4.18-.05 8.38-.05 12.56.04zm7.85-7.08c.31.04.74.09 1.23.11 2.53.13 4.74-.42 6.32-1.88 1.19-1.14 1.88-3.02 1.94-5.19a7.15 7.15 0 0 0-2.06-5.38c-1.3-1.25-3.24-1.92-5.99-2.04-2.91-.14-4.92 0-6.32.2-.05 7.11-.11 14.23-.18 21.34 1.65.05 3.31.13 4.96.2l.11-7.35zm.13-9.95c.25-.05.76-.09 1.52-.05 1.92.09 2.86 1.25 2.84 2.84-.04 1.86-1.3 2.95-3.29 2.84-.52-.02-.85-.07-1.14-.11l.07-5.52zm21.01 18.89l5.38.63c-1.57-7.42-3.19-14.84-4.83-22.24-2.26-.24-4.52-.45-6.77-.65-2.05 7.04-4.04 14.1-6.01 21.18 1.72.13 3.46.27 5.18.42l1.19-4.92c1.61.14 3.22.31 4.83.47l1.03 5.12zm-4.16-13.59c.31-1.19.65-2.97.98-4.22h.05c.24 1.32.54 3.11.78 4.36.27 1.32.51 2.64.76 3.96-1.16-.11-2.32-.24-3.47-.34l.9-3.76zm17.2 7.12l.8.11c1.56.24 2.23.89 2.61 3.57.42 2.73.8 4.47 1.05 5.16 1.7.27 3.38.56 5.09.85-.33-.89-.76-4.13-1.23-6.44-.36-1.92-.96-3.4-2.17-4.22v-.13a5 5 0 0 0 3.49-4.67 6.52 6.52 0 0 0-1.63-5.01c-1.36-1.47-3.42-2.24-6.3-2.68a33.2 33.2 0 0 0-6.14-.42l-.87 21.29c1.67.22 3.29.45 4.94.69l.36-8.09zm.42-9.25c.25-.02.76-.02 1.7.13 1.68.29 2.55 1.34 2.48 2.97-.07 1.59-1.21 2.5-3.11 2.23l-1.3-.2c.07-1.7.14-3.42.24-5.12zm19.7 20.96c.36-5.56.71-11.11 1.05-16.67 1.63.34 3.24.69 4.85 1.05l.33-4.81c-4.89-1.1-9.79-2.08-14.72-2.97-.07 1.61-.16 3.22-.25 4.83 1.59.29 3.19.58 4.78.89l-.98 16.69c1.65.33 3.29.65 4.94 1zm20.94-3c.8-2.19 1.83-5.18 2.64-7.84.02 0 .05 0 .07.02a234.4 234.4 0 0 0-.63 8.65l-.43 7.71c1.59.43 3.17.9 4.74 1.38l.96-21.65c-2.17-.63-4.36-1.25-6.53-1.85l-1.85 5.34c-.72 2.12-1.56 4.96-2.28 7.44-.04-.02-.09-.02-.11-.04-.18-2.7-.51-5.7-.81-8.22l-.8-6.06a329.6 329.6 0 0 0-6.73-1.65c-.87 7.06-1.76 14.14-2.62 21.2 1.5.34 3.02.71 4.52 1.07.27-2.53.54-5.05.83-7.6.25-2.43.6-5.58.94-8.56h.05c.2 3.04.52 6.35.81 8.8l1 7.84c1.27.33 2.53.65 3.8 1 .81-2.32 1.61-4.65 2.43-6.97zm21.91 10.11a294.7 294.7 0 0 0-7.26-2.44l.38-3.91c2.17.69 4.34 1.43 6.5 2.17l.47-4.62c-2.17-.74-4.34-1.47-6.53-2.19l.34-3.44c2.32.74 4.63 1.54 6.93 2.34l.49-4.63a338.99 338.99 0 0 0-11.93-3.91l-1.95 21.34c4.05 1.25 8.07 2.57 12.07 3.96l.49-4.67zm7.1 1.98c.38-3.44.67-6.66.89-9.57l.07.04c.56 2.9 1.43 6.17 2.17 8.83l2.21 8.2 4.98 2.01 2.53-21.12-4.4-1.79-.58 5a95.3 95.3 0 0 0-.65 9.07l-.09-.04a86.6 86.6 0 0 0-1.95-8.51l-2.14-7.62a443.5 443.5 0 0 0-5.74-2.12l-2.24 21.25c1.47.52 2.91 1.05 4.36 1.59l.58-5.21zm19.05-4l-2.06 16.36 4.67 2.08 2.15-16.31c1.52.69 3.04 1.41 4.56 2.12.22-1.56.42-3.13.63-4.69a338.2 338.2 0 0 0-13.92-6.24l-.58 4.72c1.52.63 3.02 1.28 4.54 1.95zm21.73 28.31c5.23 2.81 9.12.45 10.21-6.23.89-5.54-1.1-12.15-6.68-15.15-5.3-2.84-9.36.36-10.21 6.44-.81 5.81 1.43 12.13 6.68 14.93zm-1.77-12.53c.56-3.84 2.35-5.65 4.56-4.47 2.23 1.2 3.13 4.65 2.57 8.24-.58 3.73-2.26 5.65-4.45 4.45-2.21-1.18-3.26-4.31-2.68-8.22zm18.45 13.07c1.97 1.2 3.93 2.39 5.86 3.62l.76-4.45c-1.94-1.23-3.91-2.44-5.86-3.64l.63-3.84c2.1 1.27 4.18 2.57 6.26 3.89l.78-4.51c-3.58-2.26-7.2-4.47-10.86-6.61l-3.35 20.72 4.49 2.66 1.29-7.86zM72.98 161.08c-1.97 1.18-3.95 2.35-5.9 3.57-.22-1.28-.45-2.55-.65-3.84 2.08-1.28 4.2-2.55 6.3-3.78l-.74-4.52a334.57 334.57 0 0 0-10.86 6.62l3.64 20.6 4.43-2.77-1.36-7.84c1.95-1.21 3.93-2.39 5.88-3.53l-.74-4.51zm-11.86-1.95zm21.47-12.97c-5.29 2.86-7.76 9.59-6.77 15.62.94 5.76 4.58 8.91 9.83 6.06 5.23-2.82 7.93-8.76 6.93-15.49-.8-5.59-4.4-9.19-9.99-6.19zm2.61 17.14c-2.21 1.18-3.96-.45-4.58-4.34-.62-3.82.38-7.13 2.59-8.33 2.23-1.19 3.98.83 4.53 4.42.56 3.75-.34 7.06-2.53 8.25zm20.27-16.12s0-.09-.02-.13c1.3-1.23 2.72-3.84 2.37-6.46-.27-2.06-1.1-3.28-2.37-3.8-1.5-.58-3.51-.13-6.21 1.14a41.16 41.16 0 0 0-5.63 3.19l2.99 20.67 4.56-2.23-1.09-7.87.74-.36c1.45-.67 2.17-.45 2.99 1.86a26.85 26.85 0 0 0 1.86 4.27c1.59-.74 3.19-1.45 4.78-2.15-.43-.67-1.41-3.49-2.23-5.39-.69-1.61-1.48-2.68-2.75-2.73zm-4.74-.09l-1.21.58-.69-4.98c.22-.18.69-.47 1.57-.89 1.56-.71 2.55-.24 2.77 1.36.2 1.56-.67 3.09-2.44 3.93zm-7.12-5.97zm23.01 6.66l-.49-3.89c2.12-.89 4.25-1.76 6.39-2.59l-.54-4.6a431 431 0 0 0-6.41 2.61l-.42-3.42c2.26-.94 4.54-1.86 6.82-2.77l-.54-4.62c-3.91 1.54-7.8 3.15-11.66 4.81l2.7 21.1c3.91-1.7 7.86-3.33 11.8-4.87l-.54-4.65c-2.37.92-4.76 1.88-7.11 2.88zm5.9-6.48zm10.64-8.46c-2.39-.18-3.4-.27-3.51-1.34-.11-.96.62-1.88 2.1-2.41a7.86 7.86 0 0 1 4.07-.38c.18-1.63.36-3.28.56-4.91a9.7 9.7 0 0 0-5.07.63c-4.62 1.65-6.95 5.59-6.52 9.32.36 3.15 2.57 4.36 5.76 4.51 2.12.09 2.97.42 3.1 1.45.11 1.07-.62 2.01-2.26 2.62a9.42 9.42 0 0 1-4.8.4l-.36 5.03c1.07.25 3.24.15 5.38-.63 5.21-1.9 7.31-5.85 6.93-9.52-.29-2.97-1.99-4.52-5.38-4.78zm19.8-15.02a379.6 379.6 0 0 0-14.41 4.47c.16 1.59.31 3.18.49 4.78 1.54-.52 3.1-1.03 4.65-1.52l1.59 16.56c1.61-.52 3.24-1.01 4.85-1.5l-1.52-16.6c1.59-.47 3.19-.94 4.78-1.39l-.43-4.8zm14.1 7.97v-.13a7 7 0 0 0 2.79-5.95c-.14-2.1-.92-3.48-2.19-4.24-1.5-.89-3.58-.82-6.43-.07a34.13 34.13 0 0 0-5.95 2.06l1.79 21.12 4.83-1.32-.65-8.04.8-.22c1.52-.4 2.26-.02 2.95 2.42.74 2.5 1.32 4.04 1.65 4.62 1.68-.42 3.35-.83 5.03-1.21-.42-.74-1.23-3.73-1.97-5.79-.6-1.74-1.36-2.95-2.64-3.26zm-4.85-1.01c-.43.13-.85.24-1.29.34a455 455 0 0 0-.42-5.09c.25-.13.74-.33 1.67-.56 1.67-.4 2.64.27 2.77 1.88.13 1.59-.87 2.95-2.73 3.42zm19.38-13.9l-1.27 5.16c-.34 1.56-.65 2.82-.92 4.2-.02.02-.04.02-.05.02-.51-1.28-.92-2.3-1.54-3.69l-1.9-4.51-5.76 1.28c2.28 3.82 4.54 7.64 6.77 11.51l.58 8.67c1.63-.36 3.28-.69 4.92-1.03-.2-2.97-.38-5.94-.56-8.91 1.77-4.6 3.57-9.19 5.39-13.79-1.9.34-3.78.71-5.67 1.09zm31.33 4.13c-1.48.16-2.99.33-4.47.51a16.25 16.25 0 0 1-1.32 5c-.81-.76-1.76-1.9-2.62-2.84l.02-.14c2.37-1.76 3.42-3.78 3.33-5.92-.13-3.22-2.59-4.98-5.74-4.54a6.5 6.5 0 0 0-5.81 6.75c.07 1.57.8 3.04 1.59 3.82v.11a7.64 7.64 0 0 0-3.22 6.7c.14 2.95 2.23 5.81 7.1 5.1a8.77 8.77 0 0 0 4.91-2.34c.33.45.69.81 1.05 1.19 1.9-.25 3.82-.47 5.74-.67a109.9 109.9 0 0 1-3.53-4.05c1.68-2.44 2.59-5.38 2.99-8.67zm-10.82-4.4h.02c.94-.13 1.45.8 1.48 1.66.04 1-.4 1.79-1.47 2.95-.92-.92-1.32-1.72-1.36-2.62-.04-.89.42-1.86 1.32-1.99zm.18 14.68h-.02c-1.77.24-2.86-.98-2.93-2.55a3.58 3.58 0 0 1 .94-2.55c1.39 1.48 2.73 3 3.98 4.13-.4.43-1.1.85-1.97.98zm30.25-20.73c-4.09.2-8.16.49-12.24.83l.58 21.63c1.67-.14 3.35-.27 5.01-.38l-.18-8.24c2.21-.14 4.42-.29 6.61-.4l-.07-4.71-6.64.42a261 261 0 0 0-.09-4c2.37-.18 4.72-.33 7.1-.43l-.07-4.72zm3.16-.15c.09 7.22.18 14.43.29 21.65l5.01-.18c-.05-7.2-.13-14.43-.18-21.65-1.7.04-3.42.11-5.12.18zm19.81 11.31v-.13a5.65 5.65 0 0 0 3.29-5.18c.02-2.12-.65-3.67-1.85-4.76-1.45-1.25-3.55-1.72-6.46-1.72-2.53 0-4.72.22-6.15.49l.11 21.38c1.67-.04 3.31-.05 4.98-.05-.02-2.71-.02-5.41-.02-8.13h.81c1.56 0 2.26.54 2.77 3.15a32.18 32.18 0 0 0 1.29 5c1.72.02 3.42.05 5.14.09-.36-.83-.94-4-1.52-6.23-.47-1.88-1.12-3.28-2.39-3.91zm-4.78-2.24h-1.32v-5.14c.25-.07.76-.13 1.72-.13 1.68.04 2.61.94 2.61 2.59s-1.1 2.68-3 2.68zm16 3.9c2.26.11 4.51.24 6.77.38.04-1.56.05-3.13.09-4.69-2.26-.14-4.52-.27-6.79-.38l.05-3.51c2.41.13 4.81.25 7.22.42l.11-4.72c-4.13-.27-8.25-.47-12.38-.6l-.22 21.65c4.18.13 8.36.34 12.53.62l.11-4.74c-2.52-.18-5.03-.31-7.55-.43l.05-3.98zm22.55-11.34a32.38 32.38 0 0 0-6.3-.18l-.62 21.34 4.96.49c.07-2.44.14-4.89.24-7.33.31.05.74.14 1.23.18 2.52.29 4.74-.11 6.33-1.48 1.21-1.07 1.94-2.91 2.03-5.09a7.37 7.37 0 0 0-1.95-5.5c-1.27-1.32-3.19-2.12-5.92-2.42zm-.43 10.06c-.52-.05-.85-.13-1.14-.18.05-1.85.13-3.67.18-5.52.25-.04.76-.05 1.52.04 1.92.22 2.82 1.43 2.77 3.02-.07 1.86-1.34 2.86-3.33 2.64zm17.22-7.8c-2.53-.4-4.71-.52-6.14-.47l-.94 21.3 4.92.72.4-8.09.8.13c1.56.25 2.23.9 2.59 3.58.42 2.75.8 4.49 1.03 5.18 1.68.29 3.38.58 5.07.9-.31-.9-.72-4.14-1.18-6.46-.38-1.94-.96-3.44-2.17-4.25v-.13a4.95 4.95 0 0 0 3.51-4.63 6.58 6.58 0 0 0-1.61-5.05c-1.36-1.47-3.4-2.26-6.28-2.73zm-.25 9.54l-1.3-.2.25-5.12a7.2 7.2 0 0 1 1.7.14c1.68.29 2.55 1.34 2.46 2.99-.09 1.59-1.23 2.5-3.11 2.19zm19.76-6.07c-5.76-1.25-9.65 3.1-10.01 9.36-.34 5.97 2.53 11.57 8.22 12.78 5.67 1.23 9.5-2.28 10.03-9.19.45-5.7-2.21-11.62-8.24-12.94zm2.99 11.91c-.27 3.85-1.85 6.24-4.24 5.72-2.37-.51-3.73-3.31-3.48-7.33.25-3.96 1.94-6.26 4.33-5.75 2.41.52 3.66 3.66 3.38 7.37zm6.4-4.47c1.57.38 3.15.78 4.72 1.19l-1.34 16.64c1.65.43 3.28.87 4.91 1.32.47-5.54.94-11.08 1.39-16.62 1.61.43 3.2.9 4.8 1.36l.42-4.8a334.82 334.82 0 0 0-14.53-3.91l-.36 4.81zm15.23 21.15a353.2 353.2 0 0 1 12.09 3.86c.14-1.56.31-3.11.47-4.67a440.1 440.1 0 0 0-7.26-2.39c.11-1.3.25-2.61.38-3.93 2.17.69 4.33 1.39 6.5 2.14l.47-4.62c-2.17-.72-4.34-1.45-6.53-2.14l.33-3.46c2.33.74 4.65 1.5 6.97 2.28l.47-4.63a318.8 318.8 0 0 0-11.95-3.82l-1.94 21.38zm28.14 9.21zm-1.78-22.64c-5.39-2.06-10.52.14-11.29 7.66-.58 5.67 1.86 11.62 8.49 14.14 2.14.81 3.84.96 4.58.85l-.13-4.72a8.61 8.61 0 0 1-3.28-.62c-3.28-1.25-4.96-4.34-4.54-8.22.47-4.34 3.11-5.39 5.9-4.33 1.43.54 2.48 1.36 3.24 2.04l1.47-4.09a12.45 12.45 0 0 0-4.43-2.72zm19.93 8.66c-4.63-2.1-9.3-4.09-14.01-5.97l-.56 4.72 4.56 1.88-2.03 16.4c1.57.65 3.15 1.32 4.71 2.01.71-5.45 1.39-10.91 2.1-16.36 1.54.67 3.08 1.34 4.6 2.04l.63-4.72zm-.66 22.04c1.56.71 3.1 1.45 4.65 2.19l2.93-21a256.5 256.5 0 0 0-4.74-2.23l-2.84 21.03zm18.83-13.53c-5.32-2.79-9.39.45-10.24 6.55-.81 5.81 1.43 12.11 6.72 14.86 5.25 2.75 9.16.34 10.24-6.35.89-5.54-1.12-12.11-6.72-15.06zm1.85 12.6c-.58 3.73-2.28 5.67-4.49 4.51-2.21-1.16-3.26-4.29-2.68-8.2.56-3.86 2.35-5.68 4.58-4.53 2.23 1.18 3.13 4.62 2.59 8.22zm19.4-.14l-.85 4.87a99.95 99.95 0 0 0-1.14 8.92l-.09-.05a85.87 85.87 0 0 0-1.39-8.83c-.52-2.66-1.07-5.32-1.61-7.96a291.13 291.13 0 0 0-5.39-3.15c-1.1 6.93-2.23 13.86-3.35 20.78 1.38.78 2.73 1.58 4.11 2.37l.83-5.1c.56-3.35 1.03-6.52 1.39-9.38l.07.04c.4 3 1.03 6.43 1.59 9.19l1.65 8.58c1.56.96 3.11 1.92 4.65 2.9l3.64-20.6c-1.38-.87-2.73-1.72-4.11-2.57z"/><path fill="#df2c2f" d="M416.69 339.75H187.04v-6.43h229.65v6.43zm-.98 147.01c-116.91-56.85-235.2-51.14-326.35 6.78 0 0 133.33 96.9 161.66 96.71 29.41-.2 164.69-103.49 164.69-103.49"/><path fill="none" stroke="#fac517" stroke-miterlimit="72.4" stroke-width="17.88" d="M78.87 493.54c91.17-57.92 231.49-61.17 348.39-4.34"/><path fill="#fac517" d="M70.63 255l102.5.24-.11 99.1 145.36 127.44s-.33 3.02.69 4.34c1 1.36 4.02 3.35 4.02 4.36s1.68 6.7 2.68 7.37c1.01.65 7.73 4.67 7.06 6.01-.67 1.36-8.05 5.7-7.73 7.04.34 1.32-1 2.66-1.34 4.67-.33 2.01 1.68 8.36.34 9.68-1.34 1.36-.34 3.69-2.03 4.71-1.67 1-3.35 2.66-3 3.67s1.67 3.67 1 5.01c-.65 1.34-1.68 5.01.34 5.36 2.01.33-9.21 2.08-8.87 3.75.33 1.68-6.59 5.03-11.64 6.71-5.03 1.66-46.97 9.94-46.97 9.94s1.68-4.69-3.02-5.01c0 0 1.34-5.01-2.03-11.04a54.44 54.44 0 0 0-21.14-21.41c-11.75-6.68-3.02-1-5.7-.67-2.7.34-4.71 0-4.71-1.01s2.01-6.01-2.35-8.69c-4.36-2.66-2.7 1.01-8.05 0-5.36-1-9.41.69-13.1-7.37 0 0-4.69-7.67-31.2-5.68 0 0-2.37-4-5.38-3.66 0 0 2.03-3.69 1.67-4.71-.33-1-2.01-2.66-2.01-2.66l-.33-4.34s1.67-6.03.67-7.37c-1.01-1.34-2.03-.33-3.69-1.34-1.68-1-2.7-1.99-2.7-3s3.37-2.34.34-4.34-3.37-2.68-4.38-3c-1-.36-1.32-4.02-4.34-4.69s-3.71-3.69-4.38-5.03c-.67-1.32-3.02-7.35-6.7-8.34 0 0 .67-3.02-4.38-6.05-5.03-3-3.35-8.34-3.35-10.35s-1.01-4.67.33-4.02c1.36.67 3.02 1.34 3.37-1.66.33-3.02-1.01-8.04-4.36-8.36-3.37-.34-1.68 2.34-3.02 1.66-1.36-.67-9.07-9.03-8.74-10.7.34-1.68.69-3.35 0-4.34-.65-1.01.34-5.03-1.67-4.04 0 0-2.7-10.01 2.68-10.01 0 0 1.68 0 1.01 6.35 0 0 2.01 1.34 3.02 2.32 1 1.03 3.02 3.69 5.7 3.02 0 0-1.34-1.34-2.35-1.99-1.01-.69 1.01-2.7-.67-4.69-1.68-2.01-2.68-3.35-2.68-3.35v-1.34l-2.7-1.01s3.02-2.68.34-3.67c-2.7-1-1.34-2.66 0-2.66s3.02 0 3.02-1.01-1.68-3.35-3.37-3.35-3.69 1-3.35 2.01-1.34 2.35 0 3.67c1.34 1.34 2.35 3.67.67 3.67s-2.01 1.68-3.37 0c-1.34-1.66-3.35-1.66-3.35-1.66s-4.24-5.52-4.71-3.67c-.34 1.34-2.68 1.34-2.68 1.34s1.99-4.58.34-10.37c-1.36-4.69-2.35-3.67-7.06-9.7-3.06-3.93-11.42-10.37-10.73-11.71.65-1.34 1-4.34.65-5.68-.33-1.34-3.35-7.37-2.33-9.03 1-1.66 2.01-8.69.67-11.71-1.36-3-6.39-12.04-13.43-18.72 0 0 .33-1.36 0-4.02-.34-2.7 8.05-16.72 7.38-19.4s-1.01-3.35.34-5.68c1.34-2.34 2.33-14.72-1.01-18.08-3.35-3.33-1.36-1.32-.67-3.67.67-2.34.67-4.34.67-4.34"/><path fill="#fff" stroke="#fff" stroke-miterlimit="72.4" stroke-width="2.24" d="M202.7 362.06a4.25 4.25 0 0 0 1.05 2.37c.96.94 2.61 1.43 4.94 1.43 1.39 0 2.53-.13 3.4-.38 1.65-.49 2.46-1.38 2.46-2.68 0-.78-.4-1.36-1.19-1.77a14.4 14.4 0 0 0-3.86-1.09l-3-.56c-2.95-.52-4.98-1.12-6.1-1.76a5.38 5.38 0 0 1-2.81-5.01c0-2.06.92-3.78 2.75-5.16s4.52-2.06 8.07-2.06c2.95 0 5.48.65 7.58 1.94a6.6 6.6 0 0 1 3.29 5.63h-5.59c-.09-1.39-.85-2.37-2.24-2.97a9.04 9.04 0 0 0-3.44-.56c-1.54 0-2.75.24-3.67.74-.9.51-1.38 1.19-1.38 2.1 0 .83.45 1.45 1.36 1.86.58.25 1.81.58 3.69.94l4.87.96c2.12.42 3.73.98 4.8 1.68 1.65 1.09 2.48 2.66 2.48 4.72s-.98 3.87-2.93 5.27c-1.97 1.39-4.74 2.1-8.33 2.1s-6.53-.69-8.62-2.08a6.42 6.42 0 0 1-3.15-5.67h5.56zm26.85 7.17h-5.77v-23.19h5.77v23.19zm5.33-23.18h6.08l11.06 16.15v-16.15h5.41v23.19h-5.81l-11.35-16.47v16.47h-5.39v-23.19zm30.64 2.44c2.24-1.92 5.09-2.86 8.54-2.86 4.63 0 8.02 1.28 10.15 3.84a7.62 7.62 0 0 1 1.9 4.34h-5.81a6.24 6.24 0 0 0-1.43-2.57c-1.03-1-2.57-1.52-4.6-1.52s-3.71.72-4.91 2.14c-1.19 1.43-1.79 3.44-1.79 6.05s.63 4.56 1.9 5.86c1.25 1.3 2.86 1.95 4.8 1.95s3.51-.56 4.56-1.68a6.58 6.58 0 0 0 1.45-2.68h5.77c-.49 2.53-1.77 4.58-3.82 6.15s-4.67 2.37-7.87 2.37c-3.95 0-7.06-1.07-9.32-3.2-2.26-2.15-3.38-5.1-3.38-8.83 0-4.04 1.29-7.17 3.86-9.36zm45.78 1.68h-14.7v4.91h13.48v4.02H296.6v5.95h15.37v4.18h-21.05v-23.15h20.38v4.09zm15.65 3.35v-3.04a28.9 28.9 0 0 0 3.57-.29c1.07-.2 1.95-.6 2.64-1.19.45-.4.81-.94 1.05-1.63.13-.4.2-.71.2-.9h4.49v22.77h-5.52v-15.71h-6.43zm26.78 1.32c.62.52 1.47.8 2.55.8s1.94-.27 2.55-.8c.6-.51.89-1.19.89-2.01 0-.9-.29-1.59-.89-2.1-.62-.51-1.47-.76-2.55-.76s-1.94.25-2.55.76-.92 1.19-.92 2.1c0 .81.31 1.5.92 2.01zm-.34 10.39c.69.62 1.67.92 2.9.92s2.21-.31 2.9-.92c.71-.62 1.05-1.5 1.05-2.62s-.36-2.04-1.07-2.66c-.71-.6-1.67-.9-2.88-.9s-2.17.31-2.88.9c-.71.62-1.07 1.5-1.07 2.66s.34 2.01 1.05 2.62zm-5.57-5.81a6.37 6.37 0 0 1 3.02-2.34 5.8 5.8 0 0 1-2.59-2.39 5.92 5.92 0 0 1-.58-2.39c0-1.65.74-3.06 2.24-4.24 1.5-1.16 3.62-1.74 6.35-1.74s4.85.58 6.35 1.74c1.5 1.18 2.26 2.59 2.26 4.24 0 .76-.2 1.54-.6 2.41-.4.85-1.25 1.59-2.57 2.23a7.16 7.16 0 0 1 3.04 2.48 6.2 6.2 0 0 1 1.03 3.48c0 1.92-.85 3.55-2.55 4.89-1.72 1.34-4.09 2.03-7.15 2.03s-5.38-.69-6.93-2.03a6.16 6.16 0 0 1-2.37-4.89c0-1.28.34-2.44 1.03-3.48zm27.39-4.58c.62.52 1.47.8 2.55.8s1.94-.27 2.55-.8c.6-.51.89-1.19.89-2.01 0-.9-.29-1.59-.89-2.1-.62-.51-1.47-.76-2.55-.76s-1.94.25-2.55.76-.92 1.19-.92 2.1c0 .81.31 1.5.92 2.01zm-.34 10.39c.69.62 1.67.92 2.9.92s2.21-.31 2.9-.92c.71-.62 1.05-1.5 1.05-2.62s-.36-2.04-1.07-2.66c-.71-.6-1.67-.9-2.88-.9s-2.17.31-2.88.9c-.71.62-1.07 1.5-1.07 2.66s.34 2.01 1.05 2.62zm-5.57-5.81a6.37 6.37 0 0 1 3.02-2.34 5.8 5.8 0 0 1-2.59-2.39 5.92 5.92 0 0 1-.58-2.39c0-1.65.74-3.06 2.24-4.24 1.5-1.16 3.62-1.74 6.35-1.74s4.85.58 6.35 1.74c1.5 1.18 2.26 2.59 2.26 4.24 0 .76-.2 1.54-.6 2.41-.4.85-1.25 1.59-2.57 2.23a7.16 7.16 0 0 1 3.04 2.48 6.2 6.2 0 0 1 1.03 3.48c0 1.92-.85 3.55-2.55 4.89-1.72 1.34-4.09 2.03-7.15 2.03s-5.38-.69-6.93-2.03a6.16 6.16 0 0 1-2.37-4.89c0-1.28.34-2.44 1.03-3.48zm25.78 3.69c.22.98.63 1.72 1.23 2.26.6.52 1.47.78 2.62.78 1.34 0 2.35-.38 3.04-1.16.71-.78 1.05-1.76 1.05-2.95s-.33-2.14-.98-2.93-1.67-1.19-3.06-1.19a5.6 5.6 0 0 0-1.68.2c-.85.25-1.48.72-1.9 1.41l-4.83-.2 1.94-12.58h15.04v3.8h-11.17l-.98 4.98c.83-.45 1.47-.76 1.94-.89a9.34 9.34 0 0 1 2.84-.38c2.26 0 4.24.63 5.92 1.9s2.53 3.11 2.53 5.52c0 2.12-.81 3.98-2.44 5.65-1.61 1.65-4.04 2.48-7.28 2.48-2.61 0-4.72-.58-6.41-1.76a6.43 6.43 0 0 1-2.79-4.94h5.36z"/><path fill="#231f20" d="M449.66 453.01S347.81 554.81 250.7 583.72c-104.85-28.91-201.94-131.4-201.94-131.4l-.89-332.73c97.25-81.76 293.24-80.54 401.78 1.61v331.81zM25 103.65v362.58s115.84 116.82 226 147.86c110.34-32.11 224-147.86 224-147.86V105.79c-109.94-97.6-328.71-97.6-450-2.14"/><path fill="#fac517" d="M446.39 452.75S333.23 560.72 251 583.72C156.36 556.79 50.38 452.75 50.38 452.75v-332.2c110.37-78.28 287.88-79.89 396.01 1.61v330.6zm-407.74 4.72S152.24 569.24 251 596.33c100.33-27.49 211.95-138.86 211.95-138.86V115.06c-102.82-92.72-310.68-92.72-424.3-2.04"/></svg>