<?xml version="1.0" encoding="utf-8"?>
<!-- Generator: Adobe Illustrator 27.3.1, SVG Export Plug-In . SVG Version: 6.00 Build 0)  -->
<svg version="1.1" id="Layer_1" xmlns="http://www.w3.org/2000/svg" xmlns:xlink="http://www.w3.org/1999/xlink" x="0px" y="0px"
	 viewBox="0 0 85 44" style="enable-background:new 0 0 85 44;" xml:space="preserve">
<style type="text/css">
	.st0{fill:#E15402;}
	.st1{fill:#FFFFFF;}
</style>
<path class="st0" d="M68.1,38.9H16.3c-7.1,0-12.8-5.7-12.8-12.8v-8.5c0-7.1,5.7-12.8,12.8-12.8h51.8c7.1,0,12.8,5.7,12.8,12.8v8.5
	C80.9,33.2,75.1,38.9,68.1,38.9z"/>
<g>
	<path class="st1" d="M24.6,29.1h-6.9V14.3h6.7c3,0,4.8,1.5,4.8,3.8c0,1.8-1.1,3-2.5,3.4c1.7,0.4,2.8,1.9,2.8,3.6
		C29.5,27.5,27.7,29.1,24.6,29.1z M23.7,17.2h-2.4v3.1h2.4c1.2,0,1.8-0.5,1.8-1.5C25.5,17.7,24.8,17.2,23.7,17.2z M23.9,22.9h-2.6
		v3.3H24c1.2,0,1.9-0.5,1.9-1.6S25.1,22.9,23.9,22.9z"/>
	<path class="st1" d="M40.7,17.2h-5.5v3H40V23h-4.8v3.2h5.5v2.9h-9.1V14.3h9.1V17.2z"/>
	<path class="st1" d="M42.2,14.3h11.5v2.9h-3.9v11.9h-3.6V17.2h-3.9V14.3z"/>
	<path class="st1" d="M64.7,26.5h-5.5l-0.9,2.6h-3.8l5.4-14.8h4.2l5.4,14.8h-3.8L64.7,26.5z M62,18.3l-1.8,5.4h3.7L62,18.3z"/>
</g>
</svg>
