<?xml version="1.0" encoding="utf-8"?>
<!-- Generator: Adobe Illustrator 27.3.1, SVG Export Plug-In . SVG Version: 6.00 Build 0)  -->
<svg version="1.1" id="Layer_1" xmlns="http://www.w3.org/2000/svg" xmlns:xlink="http://www.w3.org/1999/xlink" x="0px" y="0px"
	 viewBox="0 0 296 68" style="enable-background:new 0 0 296 68;" xml:space="preserve">
<style type="text/css">
	.st0{fill:#FFFFFF;}
	.st1{fill:#FAAE28;}
	.st2{fill:#006842;}
	.st3{enable-background:new    ;}
</style>
<g>
	<g>
		<rect x="72.2" y="42.1" class="st0" width="119.7" height="18.2"/>
		<path class="st1" d="M82.3,47c-2.2,0-4.1,1.7-4.1,4c0,2.2,1.8,4.1,4,4.1h0.1c1.2,0,2.4-0.5,3.3-1.4l1.4,1.5
			c-1.3,1.3-3,2.1-4.8,2.1c-3.4,0.1-6.3-2.6-6.4-6s2.6-6.3,6-6.4h0.4c1.8,0,3.5,0.7,4.7,2l-1.3,1.7C84.8,47.6,83.6,47,82.3,47"/>
		<path class="st1" d="M106.2,51.1c0.2,3.6-2.6,6.7-6.2,6.9s-6.7-2.6-6.9-6.2c-0.2-3.6,2.6-6.7,6.2-6.9h0.3c3.5-0.1,6.4,2.6,6.5,6
			C106.2,51,106.2,51,106.2,51.1 M95.5,51.1c0,2.3,1.9,4.1,4.2,4.1c2.3,0,4.1-1.9,4.1-4.2s-2-4-4.2-4C97.3,47,95.5,48.9,95.5,51.1"
			/>
		<path class="st1" d="M118.8,55.2c1.6,0.1,2.9-1.1,3-2.6v-0.5V45h2.3v7.1c0,3.2-2,5.2-5.4,5.2c-3.3,0-5.4-2-5.4-5.2V45h2.3v7.1
			c-0.1,1.6,1.1,3,2.7,3.1C118.3,55.2,118.8,55.2,118.8,55.2z"/>
		<polygon class="st1" points="134.6,45 141,53.4 141,45 143.2,45 143.2,57.2 141,57.2 134.6,48.9 134.6,57.2 132.3,57.2 132.3,45 
					"/>
		<path class="st1" d="M157.2,47c-2.2,0-4.1,1.8-4.1,4s1.8,4.1,4,4.1h0.1c1.2,0,2.4-0.5,3.3-1.4l1.4,1.5c-1.3,1.3-3,2.1-4.8,2.1
			c-3.4,0.1-6.3-2.6-6.4-6c-0.1-3.4,2.6-6.3,6-6.4h0.4c1.8,0,3.5,0.7,4.7,2l-1.4,1.7C159.7,47.6,158.5,47,157.2,47"/>
		<rect x="169" y="45" class="st1" width="2.3" height="12.3"/>
		<polygon class="st1" points="182,45 182,55.1 187.4,55.1 187.4,57.2 179.7,57.2 179.7,45 		"/>
		<path class="st2" d="M72.1,36.1c3.1-0.1,3.3-1.6,3.3-5.1V18.7c0-3.7-0.3-4.9-3.3-5.1v-1.1c2.8,0.1,6,0.1,9.4,0.1
			c3,0,5.7-0.1,9.1-0.2c0.6,0.6,0.7,2,0.6,3.6c0,0.7-0.2,3.3-0.2,3.3h-1.1c-0.6-3.8-2-5.3-8.6-5.3c0,0.5-0.1,2.6-0.1,3.5v6.2h1.1
			c4.4,0,5-0.8,5.5-2.8h0.9v7.8h-1.1c-0.4-2.4-1-3.3-5.4-3.3H81v5.4c0,3.5,0.6,4.7,4,5V37c-2.5,0-4.4-0.1-6.6-0.1
			c-2.8,0-4,0-6.3,0.1V36.1z"/>
		<path class="st2" d="M91.3,36.1c1.8-0.1,2.5-0.7,2.5-3.4V28c0-1.5-0.1-3.5-0.6-4.1l-1.7-0.6v-1l6.5-2.1l0.8,0.7
			c-0.2,1.7-0.2,3.4-0.2,5.1v6.7c0,2.7,0.5,3.3,2.5,3.4v1C99.5,37,98,37,96.4,37c-1.5,0-3.5,0-5.1,0.1V36.1z M92.9,15.2
			c0-1.6,1.2-2.9,2.8-3c1.6,0,2.9,1.2,3,2.8c0,1.6-1.2,2.9-2.8,3h-0.1c-1.6,0.1-2.9-1.2-2.9-2.7V15.2z"/>
		<path class="st2" d="M101.8,36.1c1.9-0.2,2.3-1.7,2.3-3.8V28c0-1.5-0.1-3.7-0.6-4.3l-1.6-0.6l-0.1-0.9l6.4-2.1l0.7,0.6
			c-0.2,1.2-0.3,2.5-0.3,3.7c0.5-1,1-2,1.8-2.8c0.5-0.7,1.2-1.2,2-1.4c2.4,0,3.1,1.7,3,3.5l-0.9,0.8c-0.9-0.5-1.8-0.8-2.8-0.8
			c-1.1,0.1-2.2,0.6-2.8,1.6v6.9c0,2.3,0.1,3.5,2.6,3.8v1c-1.9-0.1-3.7-0.1-5.2-0.1s-2.8,0-4.4,0.1L101.8,36.1z"/>
		<path class="st2" d="M115.6,29c0-5.6,3.5-9,7.5-9c4.2,0,5.8,3.6,5.8,6.9l-0.7,0.8h-8.1c0.2,4.6,2.2,6.7,4.7,6.8
			c1.3,0,2.6-0.3,3.8-0.8l0.3,1c-1.7,1-3.5,1.9-5.3,2.6C119.1,37.7,115.6,35.1,115.6,29 M124.4,26.6c0.1-3.7-0.8-5.2-1.8-5.2
			c-1.7,0-2.3,2.4-2.3,5.4L124.4,26.6z"/>
		<path class="st0" d="M132.7,35.9c-0.8-1-0.8-2.3-0.7-3.9l0.3-3.4h1.2c0.7,5.3,3.3,7.3,6.2,7.3c2.2,0.2,4.2-1.5,4.3-3.7v-0.5
			c0-2.1-1.5-3.6-4.2-4.3c-3.9-1.1-7.8-2.7-7.8-7.7c0.1-4.6,3.6-7.6,9-7.6c2.1-0.1,4.1,0.3,6,1.2c0.9,1.1,0.8,3.2,0.8,3.9v3.1h-1.3
			c-0.6-3.8-2.5-6.5-5.2-6.5c-2.1-0.1-3.8,1.5-3.9,3.6V18c0.1,2.4,1.7,3.5,4,4.2c5.1,1.4,7.7,3.5,7.7,7.7c0,4.8-3.5,7.8-9.5,7.8
			C136.6,37.6,133.7,36.8,132.7,35.9"/>
		<path class="st0" d="M159.7,36.6c-0.3-0.4-0.5-0.9-0.6-1.4c-0.9,1.4-2.6,2.3-4.3,2.2c-2.3,0-4-1.2-4-4c-0.1-1.7,0.7-3.3,2.1-4.2
			c2-0.7,4-1.3,6-1.8c0-2.8-0.2-4.2-0.7-4.8c-0.7-0.5-1.6-0.7-2.4-0.5l-0.3,0.4l0.1,3.1l-0.8,0.6c-1.8,0.2-3.1-0.6-3.1-2
			c0-1.5,1.8-2.3,3.4-3c1.3-0.6,2.7-0.9,4.1-0.9c2.5,0,4.4,1.3,4.4,5.4c0,1.8-0.1,4.7-0.1,6.4c0,1.8,0.5,2.7,1.7,2.7h0.9l0.2,0.9
			l-5,1.7C160.7,37.3,160.1,37,159.7,36.6 M158.9,33.6v-5c-0.8,0.3-1.6,0.6-2.4,1.1c-0.8,0.8-1.3,2-1.2,3.2c0,1.7,0.7,2.4,1.7,2.4
			C158,35.1,158.7,34.5,158.9,33.6"/>
		<path class="st0" d="M167.1,36.1c1.5-0.1,2.4-1.1,2.4-3.6v-9.7h-2l-0.2-1.4c0.4-0.1,0.8-0.2,1.2-0.4c0.8-0.4,0.9-0.9,1.5-3.2
			c0.5-1.9,1.4-3.6,2.8-5c1.2-1.3,2.9-2,4.6-2c1.9,0,3.8,1.3,3.7,3.3c-0.1,0.9-0.6,1.6-1.4,2l-1.1,0.3c-0.6-2-1.5-3.9-2.8-3.9
			c-1.4,0-1.6,1.8-1.6,3.4v4.7l4.6-0.2l-0.5,2.4l-4-0.1v9.7c0,2.8,0.9,3.4,3,3.6v1c-2.7-0.1-3.5-0.1-5.1-0.1s-3.3,0-5,0.1
			L167.1,36.1z"/>
		<path class="st0" d="M178.2,29c0-5.6,3.5-9,7.5-9c4.2,0,5.8,3.6,5.8,6.9l-0.7,0.8h-8.1c0.2,4.6,2.2,6.7,4.7,6.8
			c1.3,0,2.6-0.3,3.8-0.8l0.3,1c-1.7,1-3.5,1.9-5.3,2.6C181.5,37.7,178.2,35.1,178.2,29 M186.9,26.6c0.1-3.7-0.8-5.2-1.8-5.2
			c-1.7,0-2.3,2.4-2.3,5.4L186.9,26.6z"/>
	</g>
</g>
<g>
	<polygon class="st2" points="5.6,60.7 11.5,60.7 37.9,16.2 35.3,11.5 	"/>
	<polygon class="st2" points="12.8,60.7 18,60.7 41.1,22 38.4,17.5 	"/>
	<path class="st2" d="M23.7,60.7h-3.9c7.5-12.5,22.3-37.3,22.3-37.3l1.9,3.2L39.6,34c0,0-0.3-0.5-1.4-2c0,0-0.9,5.8-2.6,9
		c-1.2,2.2-2.2,3.5-3.5,5.7c-0.2-1.2,0.9-3.6,1.4-5c-1,0.8-1.8,1.7-2.4,2.8c-1,2-1.5,4.2-1.5,6.5L23.7,60.7z"/>
	<path class="st2" d="M64.1,60.7H46.6c3.6-2.4,3.8-7.3,3.8-7.3c-1,1.2-2.6,1.6-4.1,1.1c3.2-1.7,8.2-9.5,8.2-9.5S61,55.5,64.1,60.7"
		/>
	<path class="st2" d="M41.5,40.8c0-1.8-0.3-3.5-1-5.2C42.3,32.7,45,28,45,28l2.1,3.7L41.5,40.8z"/>
	<path class="st2" d="M49.9,36.7l-1.5-2.4l-6.1,9.9c0,0-2.3,3.4-1.3,5.8c1.4-2,3.4-4.8,4.2-8.5v2.7L49.9,36.7z"/>
	<path class="st2" d="M47.7,49.3c0.2-1.2,0.3-2.2,0.3-2.2s-1.2,3-3.6,3.8c2.1-3.4,7.2-11.5,7.2-11.5l1.2,2.2L47.7,49.3z"/>
	<path class="st2" d="M30.1,60.7h-3.5l3.6-6.2c0.1,0.5,0.2,1,0.4,1.5c0.2,0.7,0.6,1.3,1,1.8L30.1,60.7z"/>
	<path class="st2" d="M32.5,60.7h3.3c-0.9-0.2-1.8-0.6-2.5-1.3L32.5,60.7z"/>
	<path class="st2" d="M33.9,52.5c-1.1-1.8-0.3-4,0.7-6.1c1.3-2.8,4-7,4-7l0,4.6c-1.2,1.2-2.1,2.5-2.8,3.9
		C34.9,49.5,34.4,51,33.9,52.5"/>
</g>
<g class="st3">
	<path class="st0" d="M202.4,17.5c-0.6-0.3-1-0.7-1.4-1.2c-0.3-0.5-0.5-1-0.5-1.7s0.2-1.2,0.6-1.7c0.4-0.5,0.9-0.9,1.5-1.1
		c0.7-0.3,1.4-0.4,2.2-0.4c0.8,0,1.6,0.2,2.2,0.5c0.6,0.3,1.2,0.7,1.5,1.3c0.4,0.5,0.5,1.2,0.5,1.9h-2.5c0-0.5-0.2-0.9-0.5-1.2
		s-0.8-0.4-1.4-0.4c-0.4,0-0.7,0.1-1,0.2c-0.3,0.1-0.5,0.3-0.6,0.5s-0.2,0.4-0.2,0.6c0,0.4,0.2,0.7,0.5,0.9c0.4,0.2,0.9,0.5,1.7,0.7
		c1.3,0.4,2.3,0.9,2.9,1.5c0.6,0.6,1,1.4,1,2.3c0,0.7-0.2,1.3-0.5,1.7c-0.3,0.5-0.8,0.9-1.5,1.1c-0.6,0.3-1.4,0.4-2.2,0.4
		c-0.8,0-1.6-0.1-2.3-0.4c-0.7-0.3-1.3-0.7-1.8-1.3s-0.7-1.3-0.7-2.1h2.5c0,0.7,0.2,1.1,0.6,1.4c0.4,0.3,0.9,0.4,1.7,0.4
		c0.6,0,1-0.1,1.3-0.3c0.3-0.2,0.4-0.5,0.4-0.9c0-0.3-0.1-0.5-0.2-0.7c-0.1-0.2-0.3-0.4-0.6-0.5c-0.3-0.2-0.8-0.4-1.4-0.5
		C203.6,18.1,203,17.8,202.4,17.5z"/>
	<path class="st0" d="M219.3,20.9h-4.1l-0.8,2.3h-2.7l4.3-11.6h1.7h0.6l4.3,11.6H220L219.3,20.9z M218.6,18.9l-1.4-4.2l-1.4,4.2
		H218.6z"/>
	<path class="st0" d="M232.7,23.2l-4.5-7.5v7.5h-2.5V11.6h2.5l4.5,7.5v-7.5h2.5v11.6H232.7z"/>
	<path class="st0" d="M248.1,13.6h-3.5v9.6H242v-9.6h-3.5v-2h6h3.5V13.6z"/>
	<path class="st0" d="M256.9,20.9h-4.1l-0.8,2.3h-2.7l4.3-11.6h1.7h0.6l4.3,11.6h-2.7L256.9,20.9z M256.3,18.9l-1.4-4.2l-1.4,4.2
		H256.3z"/>
</g>
<g class="st3">
	<path class="st0" d="M208.9,36.6c0.3,0.5,0.5,1,0.5,1.6c0,1.1-0.4,2-1.1,2.6s-1.8,0.9-3.1,0.9h-3.5h-1V30h4.1
		c1.4,0,2.5,0.3,3.2,0.8c0.8,0.5,1.1,1.3,1.1,2.4c0,0.6-0.1,1-0.4,1.5c-0.3,0.4-0.7,0.8-1.2,1C208.1,35.8,208.6,36.1,208.9,36.6z
		 M203.1,32v2.8h1.6c0.6,0,1.1-0.1,1.4-0.3s0.5-0.6,0.5-1c0-0.5-0.1-0.9-0.4-1.1s-0.8-0.3-1.4-0.3H203.1z M206.4,39.2
		c0.3-0.3,0.4-0.6,0.4-1c0-1-0.5-1.6-1.6-1.6h-2.1v3h2C205.7,39.6,206.1,39.4,206.4,39.2z"/>
	<path class="st0" d="M219.4,39.3h-4.1l-0.8,2.3h-2.7l4.3-11.6h1.7h0.6l4.3,11.6h-2.7L219.4,39.3z M218.7,37.3l-1.4-4.2l-1.4,4.2
		H218.7z"/>
	<path class="st0" d="M235,41.5v0.1h-2.7l-2.1-4.2h-1.8v4.2h-2.5V30h4.4c0.9,0,1.7,0.1,2.3,0.4c0.6,0.3,1.1,0.7,1.5,1.2
		s0.5,1.2,0.5,1.9c0,0.8-0.2,1.5-0.5,2c-0.4,0.5-0.9,0.9-1.5,1.2L235,41.5z M228.3,35.4h1.9c0.6,0,1-0.1,1.4-0.4
		c0.3-0.3,0.5-0.7,0.5-1.2c0-0.5-0.2-0.9-0.5-1.2c-0.3-0.3-0.8-0.4-1.4-0.4h-1.9V35.4z"/>
	<path class="st0" d="M246.6,36.6c0.3,0.5,0.5,1,0.5,1.6c0,1.1-0.4,2-1.1,2.6s-1.8,0.9-3.1,0.9h-3.5h-1V30h4.1
		c1.4,0,2.5,0.3,3.2,0.8c0.8,0.5,1.1,1.3,1.1,2.4c0,0.6-0.1,1-0.4,1.5c-0.3,0.4-0.7,0.8-1.2,1C245.8,35.8,246.2,36.1,246.6,36.6z
		 M240.8,32v2.8h1.6c0.6,0,1.1-0.1,1.4-0.3s0.5-0.6,0.5-1c0-0.5-0.1-0.9-0.4-1.1S243,32,242.4,32H240.8z M244.1,39.2
		c0.3-0.3,0.4-0.6,0.4-1c0-1-0.5-1.6-1.6-1.6h-2.1v3h2C243.4,39.6,243.8,39.4,244.1,39.2z"/>
	<path class="st0" d="M257.1,39.3h-4.1l-0.8,2.3h-2.7l4.3-11.6h1.7h0.6l4.3,11.6h-2.7L257.1,39.3z M256.4,37.3L255,33l-1.4,4.2
		H256.4z"/>
	<path class="st0" d="M272.6,41.5v0.1H270l-2.1-4.2H266v4.2h-2.5V30h4.4c0.9,0,1.7,0.1,2.3,0.4c0.6,0.3,1.1,0.7,1.5,1.2
		c0.3,0.5,0.5,1.2,0.5,1.9c0,0.8-0.2,1.5-0.5,2c-0.4,0.5-0.9,0.9-1.5,1.2L272.6,41.5z M266,35.4h1.9c0.6,0,1-0.1,1.4-0.4
		c0.3-0.3,0.5-0.7,0.5-1.2c0-0.5-0.2-0.9-0.5-1.2s-0.8-0.4-1.4-0.4H266V35.4z"/>
	<path class="st0" d="M282.6,39.3h-4.1l-0.8,2.3h-2.7l4.3-11.6h1.7h0.6l4.3,11.6h-2.7L282.6,39.3z M281.9,37.3l-1.4-4.2l-1.4,4.2
		H281.9z"/>
</g>
<g class="st3">
	<path class="st0" d="M209.2,58.2c-0.4,0.6-0.9,1.1-1.6,1.4c-0.7,0.3-1.5,0.5-2.4,0.5c-1,0-1.9-0.2-2.6-0.7
		c-0.7-0.5-1.3-1.1-1.7-1.9s-0.6-1.8-0.6-3v-0.7c0-1.1,0.2-2.1,0.6-3c0.4-0.8,1-1.5,1.7-2c0.7-0.5,1.6-0.7,2.6-0.7
		c1,0,1.8,0.2,2.4,0.5c0.7,0.4,1.2,0.8,1.6,1.5c0.4,0.6,0.6,1.3,0.7,2.1h-2.5c0-0.7-0.2-1.2-0.6-1.6s-0.9-0.5-1.6-0.5
		c-0.8,0-1.4,0.3-1.7,0.9c-0.4,0.6-0.6,1.5-0.6,2.7v0.7c0,0.8,0.1,1.5,0.2,2s0.4,0.9,0.7,1.2c0.3,0.3,0.8,0.4,1.3,0.4
		c0.7,0,1.3-0.2,1.6-0.5s0.6-0.8,0.6-1.5h2.5C209.8,56.9,209.5,57.6,209.2,58.2z"/>
	<path class="st0" d="M222.3,57.5c-0.4,0.9-1,1.5-1.8,2c-0.8,0.5-1.6,0.7-2.6,0.7c-1,0-1.8-0.2-2.6-0.7s-1.3-1.1-1.8-2
		s-0.6-1.9-0.6-3v-0.5c0-1.2,0.2-2.2,0.6-3c0.4-0.9,1-1.5,1.8-2c0.7-0.5,1.6-0.7,2.6-0.7c1,0,1.8,0.2,2.6,0.7c0.8,0.5,1.3,1.1,1.8,2
		c0.4,0.9,0.6,1.9,0.6,3v0.5C222.9,55.6,222.7,56.6,222.3,57.5z M219.8,51.2c-0.4-0.6-1-0.9-1.8-0.9c-0.8,0-1.4,0.3-1.8,0.9
		s-0.6,1.5-0.6,2.7v0.5c0,1.2,0.2,2.1,0.6,2.7c0.4,0.6,1,0.9,1.8,0.9c0.8,0,1.4-0.3,1.8-0.9c0.4-0.6,0.6-1.5,0.6-2.7v-0.5
		C220.4,52.7,220.2,51.8,219.8,51.2z"/>
	<path class="st0" d="M235.5,56c0,0.9-0.2,1.6-0.6,2.2c-0.4,0.6-0.9,1.1-1.6,1.4c-0.7,0.3-1.4,0.5-2.3,0.5c-0.9,0-1.7-0.2-2.3-0.5
		c-0.7-0.3-1.2-0.8-1.6-1.4s-0.6-1.4-0.6-2.2v-7.6h2.5V56c0,1.4,0.7,2.1,2,2.1c0.6,0,1.1-0.2,1.5-0.5c0.3-0.3,0.5-0.9,0.5-1.6v-7.6
		h2.5V56z"/>
	<path class="st0" d="M246.4,60l-4.5-7.5V60h-2.5V48.4h2.5l4.5,7.5v-7.5h2.5V60H246.4z"/>
	<path class="st0" d="M261.7,50.4h-3.5V60h-2.5v-9.6h-3.5v-2h6h3.5V50.4z"/>
	<path class="st0" d="M271.6,48.4h2.7l-3.8,7.4V60H268v-4.2l-3.8-7.4h2.7l2.3,5.2L271.6,48.4z"/>
</g>
</svg>
