<?xml version="1.0" encoding="utf-8"?>
<!-- Generator: Adobe Illustrator 27.3.1, SVG Export Plug-In . SVG Version: 6.00 Build 0)  -->
<svg version="1.1" id="Layer_1" xmlns="http://www.w3.org/2000/svg" xmlns:xlink="http://www.w3.org/1999/xlink" x="0px" y="0px"
	 viewBox="0 0 266 100" style="enable-background:new 0 0 266 100;" xml:space="preserve">
<style type="text/css">
	.st0{fill:#FAAE28;}
	.st1{fill:#FFFFFF;}
	.st2{fill:#006842;}
	.st3{font-family:'Heebo-Bold';}
	.st4{font-size:16.5212px;}
	.st5{letter-spacing:2;}
</style>
<g>
	<g>
		<rect x="104.3" y="49.5" class="st0" width="152.1" height="23.2"/>
		<path class="st1" d="M117.2,55.7c-2.8,0-5.2,2.2-5.2,5.1c0,2.8,2.3,5.2,5.1,5.2h0.1c1.5,0,3.1-0.6,4.2-1.8l1.8,1.9
			c-1.7,1.7-3.8,2.7-6.1,2.7c-4.4,0.1-8.1-3.3-8.2-7.7c-0.1-4.4,3.3-8.1,7.7-8.2h0.5c2.3,0,4.5,0.9,6,2.6l-1.7,2.2
			C120.4,56.5,118.9,55.7,117.2,55.7"/>
		<path class="st1" d="M147.5,61c0.3,4.6-3.3,8.6-7.9,8.8c-4.6,0.3-8.6-3.3-8.8-7.9c-0.3-4.6,3.3-8.6,7.9-8.8h0.4
			c4.5-0.1,8.2,3.3,8.3,7.7C147.5,60.9,147.5,60.9,147.5,61 M134,61c0,2.9,2.4,5.2,5.4,5.2c2.9,0,5.2-2.4,5.2-5.4
			c0-2.9-2.6-5.1-5.4-5.1C136.3,55.7,134,58.2,134,61"/>
		<path class="st1" d="M163.7,66.2c2,0.1,3.7-1.4,3.8-3.3v-0.6v-9.1h2.9v9.1c0,4.1-2.6,6.7-6.9,6.7c-4.2,0-6.9-2.6-6.9-6.7v-9.1h2.9
			v9.1c-0.1,2,1.4,3.8,3.5,4H163.7z"/>
		<polygon class="st1" points="183.8,53.2 191.8,63.9 191.8,53.2 194.6,53.2 194.6,68.8 191.8,68.8 183.8,58.2 183.8,68.8 
			180.8,68.8 180.8,53.2 		"/>
		<path class="st1" d="M212.4,55.7c-2.8,0-5.2,2.3-5.2,5.1s2.3,5.2,5.1,5.2h0.1c1.5,0,3.1-0.6,4.2-1.8l1.8,1.9
			c-1.7,1.7-3.8,2.7-6.1,2.7c-4.4,0.1-8.1-3.3-8.2-7.7c-0.1-4.4,3.3-8.1,7.7-8.2h0.5c2.3,0,4.5,0.9,6,2.6l-1.8,2.2
			C215.6,56.5,214.1,55.7,212.4,55.7"/>
		<rect x="227.5" y="53.2" class="st1" width="2.9" height="15.6"/>
		<polygon class="st1" points="244,53.2 244,66.1 250.8,66.1 250.8,68.8 241.1,68.8 241.1,53.2 		"/>
		<path class="st2" d="M104.2,41.9c4-0.1,4.2-2,4.2-6.5V19.8c0-4.7-0.4-6.3-4.2-6.5v-1.4c3.6,0.1,7.7,0.1,11.9,0.1
			c3.8,0,7.3-0.1,11.5-0.3c0.8,0.8,0.9,2.6,0.8,4.6c0,0.9-0.3,4.2-0.3,4.2h-1.4c-0.8-4.9-2.6-6.8-10.9-6.8c0,0.6-0.1,3.3-0.1,4.5
			v7.9h1.4c5.6,0,6.4-1,7-3.6h1.2v10h-1.4c-0.5-3.1-1.3-4.2-6.9-4.2h-1.4v6.9c0,4.5,0.8,6,5.1,6.4v1.5c-3.2,0-5.6-0.1-8.4-0.1
			c-3.6,0-5.1,0-8.1,0.1V41.9z"/>
		<path class="st2" d="M128.6,41.9c2.3-0.1,3.2-0.9,3.2-4.4v-6c0-1.9-0.1-4.5-0.8-5.2l-2.2-0.8v-1.3l8.3-2.7l1,0.9
			c-0.3,2.2-0.3,4.4-0.3,6.5v8.6c0,3.5,0.6,4.2,3.2,4.4v1.3c-2-0.1-4-0.1-6-0.1c-1.9,0-4.5,0-6.5,0.1V41.9z M130.7,15.3
			c0-2,1.5-3.7,3.6-3.8c2,0,3.7,1.5,3.8,3.6c0,2-1.5,3.7-3.6,3.8h-0.1c-2,0.1-3.7-1.5-3.7-3.5V15.3z"/>
		<path class="st2" d="M142.1,41.9c2.4-0.3,2.9-2.2,2.9-4.9v-5.4c0-1.9-0.1-4.7-0.8-5.5l-2-0.8l-0.1-1.2l8.2-2.7l0.9,0.8
			c-0.3,1.5-0.4,3.2-0.4,4.7c0.6-1.3,1.3-2.6,2.3-3.6c0.6-0.9,1.5-1.5,2.6-1.8c3.1,0,4,2.2,3.8,4.5l-1.2,1c-1.2-0.6-2.3-1-3.6-1
			c-1.4,0.1-2.8,0.8-3.6,2V37c0,2.9,0.1,4.5,3.3,4.9v1.3c-2.4-0.1-4.7-0.1-6.7-0.1s-3.6,0-5.6,0.1L142.1,41.9z"/>
		<path class="st2" d="M159.6,32.9c0-7.2,4.5-11.4,9.6-11.4c5.4,0,7.4,4.6,7.4,8.8l-0.9,1h-10.2c0.3,5.9,2.8,8.6,6,8.7
			c1.7,0,3.3-0.4,4.9-1l0.4,1.3c-2.2,1.3-4.5,2.4-6.8,3.3C163.9,43.9,159.6,40.6,159.6,32.9 M170.7,29.9c0.1-4.7-1-6.7-2.3-6.7
			c-2.2,0-2.9,3.1-2.9,6.9L170.7,29.9z"/>
		<path class="st0" d="M181.3,41.6c-1-1.3-1-2.9-0.9-5l0.4-4.4h1.5c0.9,6.8,4.2,9.3,7.9,9.3c2.8,0.3,5.4-1.9,5.5-4.7v-0.6
			c0-2.7-1.9-4.6-5.4-5.5c-5-1.4-10-3.5-10-9.9c0.1-5.9,4.6-9.7,11.4-9.7c2.7-0.1,5.2,0.4,7.7,1.5c1.2,1.4,1,4.1,1,5v4h-1.7
			c-0.8-4.9-3.2-8.3-6.7-8.3c-2.7-0.1-4.9,1.9-5,4.6v0.8c0.1,3.1,2.2,4.5,5.1,5.4c6.5,1.8,9.9,4.5,9.9,9.9c0,6.1-4.5,10-12,10
			C186.2,43.8,182.6,42.8,181.3,41.6"/>
		<path class="st0" d="M215.6,42.5c-0.4-0.5-0.6-1.2-0.8-1.8c-1.2,1.8-3.3,2.9-5.5,2.8c-2.9,0-5.1-1.5-5.1-5.1
			c-0.1-2.2,0.9-4.2,2.7-5.4c2.6-0.9,5.1-1.7,7.7-2.3c0-3.6-0.3-5.4-0.9-6.1c-0.9-0.6-2-0.9-3.1-0.6l-0.4,0.5l0.1,4l-1,0.8
			c-2.3,0.3-4-0.8-4-2.6c0-1.9,2.3-2.9,4.4-3.8c1.7-0.8,3.5-1.2,5.2-1.2c3.2,0,5.6,1.7,5.6,6.9c0,2.3-0.1,6-0.1,8.2
			c0,2.3,0.6,3.5,2.2,3.5h1.2l0.3,1.2l-6.4,2.2C216.9,43.4,216.2,43,215.6,42.5 M214.6,38.7v-6.4c-1,0.4-2,0.8-3.1,1.4
			c-1,1-1.7,2.6-1.5,4.1c0,2.2,0.9,3.1,2.2,3.1C213.5,40.6,214.4,39.8,214.6,38.7"/>
		<path class="st0" d="M225,41.9c1.9-0.1,3.1-1.4,3.1-4.6V25h-2.6l-0.3-1.8c0.5-0.1,1-0.3,1.5-0.5c1-0.5,1.2-1.2,1.9-4.1
			c0.6-2.4,1.8-4.6,3.6-6.4c1.5-1.7,3.7-2.6,5.9-2.6c2.4,0,4.9,1.7,4.7,4.2c-0.1,1.2-0.8,2-1.8,2.6l-1.4,0.4c-0.8-2.6-1.9-5-3.6-5
			c-1.8,0-2,2.3-2,4.4v6l5.9-0.3l-0.6,3.1l-5.1-0.1v12.3c0,3.6,1.2,4.4,3.8,4.6V43c-3.5-0.1-4.5-0.1-6.5-0.1c-2,0-4.2,0-6.4,0.1
			L225,41.9z"/>
		<path class="st0" d="M239.2,32.9c0-7.2,4.5-11.4,9.6-11.4c5.4,0,7.4,4.6,7.4,8.8l-0.9,1h-10.2c0.3,5.9,2.8,8.6,6,8.7
			c1.7,0,3.3-0.4,4.9-1l0.4,1.3c-2.2,1.3-4.5,2.4-6.8,3.3C243.4,43.9,239.2,40.6,239.2,32.9 M250.2,29.9c0.1-4.7-1-6.7-2.3-6.7
			c-2.2,0-2.9,3.1-2.9,6.9L250.2,29.9z"/>
	</g>
</g>
<g>
	<polygon class="st2" points="8.2,72.7 16.4,72.7 52.7,11.6 49.1,5 	"/>
	<polygon class="st2" points="18.2,72.7 25.3,72.7 57.1,19.5 53.4,13.4 	"/>
	<path class="st2" d="M33.2,72.7h-5.4C38,55.4,58.5,21.4,58.5,21.4l2.6,4.4L55,36c0,0-0.4-0.7-1.9-2.7c0,0-1.3,8-3.6,12.4
		c-1.6,3-3.1,4.9-4.9,7.8c-0.3-1.7,1.3-5,1.9-6.9c-1.4,1.1-2.5,2.3-3.3,3.9c-1.4,2.7-2,5.8-2,8.9L33.2,72.7z"/>
	<path class="st2" d="M88.7,72.7H64.6c5-3.3,5.3-10,5.3-10c-1.4,1.6-3.6,2.2-5.6,1.5c4.4-2.3,11.2-13,11.2-13S84.5,65.5,88.7,72.7"
		/>
	<path class="st2" d="M57.6,45.3c0-2.4-0.4-4.9-1.4-7.1c2.4-4,6.1-10.5,6.1-10.5l2.9,5.1L57.6,45.3z"/>
	<path class="st2" d="M69.2,39.7l-2-3.3L58.9,50c0,0-3.2,4.7-1.8,8c1.9-2.7,4.7-6.6,5.8-11.6v3.7L69.2,39.7z"/>
	<path class="st2" d="M66.2,57c0.2-1.7,0.4-3,0.4-3s-1.7,4.1-5,5.3c2.9-4.7,9.8-15.9,9.8-15.9l1.7,3L66.2,57z"/>
	<path class="st2" d="M42,72.7h-4.9l5-8.5c0.1,0.7,0.2,1.4,0.5,2.1c0.3,1,0.8,1.8,1.4,2.5L42,72.7z"/>
	<path class="st2" d="M45.2,72.7h4.5c-1.3-0.3-2.4-0.8-3.4-1.8L45.2,72.7z"/>
	<path class="st2" d="M47.2,61.5c-1.5-2.5-0.4-5.5,1-8.4c1.8-3.9,5.5-9.6,5.5-9.6l-0.1,6.2c-1.6,1.6-2.9,3.5-3.9,5.4
		C48.6,57.2,47.9,59.3,47.2,61.5"/>
</g>
<text transform="matrix(1 0 0 1 7.4814 94.3828)" class="st2 st3 st4 st5">SANTA BARBARA COUNTY</text>
</svg>
